<svg xmlns="http://www.w3.org/2000/svg" width="900" height="230" viewBox="0 0 900 230">
    <style>.icon svg {
  width:100%;
  height:100%;
  fill:none;
  stroke:currentColor;
  stroke-width:1.8;
  stroke-linecap:round;
  stroke-linejoin:round;
}
.icon .engraving-surface {
  fill:currentColor;
  fill-opacity:.14;
}
.icon .engraving-shadow {
  fill:currentColor;
  fill-opacity:.3;
  stroke:none;
}
.icon .engraving-ink {
  fill:currentColor;
  stroke:none;
}
.icon .engraving-detail {
  stroke-width:1.1;
}
.ledger-stats .engraving-fine,
.text-command .engraving-fine,
.price .engraving-detail {
  display:none;
}
text{font-family:Segoe UI,Arial,sans-serif;fill:#302c22}.caption{font-size:13px}.small-size .engraving-fine{display:none}</style>
    <rect width="900" height="230" fill="#f2e8cd"/>
    <text x="28" y="31" font-size="18" font-family="Georgia,serif">City Details · Woodcut icon study</text>
    <text x="28" y="52" font-size="11">Enlarged above · Compact 18px rendering below</text>
    <g class="icon" color="#746446" transform="translate(28,70)">
      <svg x="28" width="64" height="64" viewBox="0 0 32 32"><path class="engraving-surface" d="M16 3 23 5 28 10 29 17 26 24 20 28 12 29 6 25 3 19 3 12 8 6Z"></path>
      <path class="engraving-shadow" d="M27 11 27 18 24 24 18 27 11 27 6 23 9 27 16 30 24 27 29 20 30 14Z"></path>
      <path class="engraving-detail" d="M10 8 16 6 23 9M7 12l-1 5 3 6M22 24l3-4"></path>
      <path class="engraving-ink" d="m9 11 4 3 3-6 3 6 4-3-2 10H11Z"></path>
      <path d="M12 24h8"></path></svg>
      <text class="caption" x="60" y="88" text-anchor="middle">Gold</text>
      <svg class="small-size" x="51" y="110" width="18" height="18" viewBox="0 0 32 32"><path class="engraving-surface" d="M16 3 23 5 28 10 29 17 26 24 20 28 12 29 6 25 3 19 3 12 8 6Z"></path>
      <path class="engraving-shadow" d="M27 11 27 18 24 24 18 27 11 27 6 23 9 27 16 30 24 27 29 20 30 14Z"></path>
      <path class="engraving-detail" d="M10 8 16 6 23 9M7 12l-1 5 3 6M22 24l3-4"></path>
      <path class="engraving-ink" d="m9 11 4 3 3-6 3 6 4-3-2 10H11Z"></path>
      <path d="M12 24h8"></path></svg>
    </g><g class="icon" color="#746446" transform="translate(173,70)">
      <svg x="28" width="64" height="64" viewBox="0 0 32 32"><path class="engraving-surface" d="M8 18v7l8 5 8-5v-7ZM6 16 8 9q3-6 8-6t8 6l2 7Z"></path>
      <path class="engraving-shadow" d="M18 4q6 3 7 12h-6ZM19 20h5v5l-8 5v-5Z"></path>
      <path class="engraving-ink" d="m5 14 22 1 3 3-1 2H3l-1-2ZM11 21h4v2h-4Zm6 0h4v2h-4Z"></path>
      <path d="m16 5-1 8m1 8v5"></path>
      <path class="engraving-detail engraving-fine" d="m10 25 2 2m0-3 2 2m5 1 2-2m-9-15 1-2"></path></svg>
      <text class="caption" x="60" y="88" text-anchor="middle">Garrison</text>
      <svg class="small-size" x="51" y="110" width="18" height="18" viewBox="0 0 32 32"><path class="engraving-surface" d="M8 18v7l8 5 8-5v-7ZM6 16 8 9q3-6 8-6t8 6l2 7Z"></path>
      <path class="engraving-shadow" d="M18 4q6 3 7 12h-6ZM19 20h5v5l-8 5v-5Z"></path>
      <path class="engraving-ink" d="m5 14 22 1 3 3-1 2H3l-1-2ZM11 21h4v2h-4Zm6 0h4v2h-4Z"></path>
      <path d="m16 5-1 8m1 8v5"></path>
      <path class="engraving-detail engraving-fine" d="m10 25 2 2m0-3 2 2m5 1 2-2m-9-15 1-2"></path></svg>
    </g><g class="icon" color="#746446" transform="translate(318,70)">
      <svg x="28" width="64" height="64" viewBox="0 0 32 32"><path class="engraving-surface" d="M3 28 4 6h6v6h3V5h6v7h3V6h6l1 22Z"></path>
      <path class="engraving-shadow" d="m25 7 3-1 1 22H3v-4h22Z"></path>
      <path d="M4 18h24M5 24h23M9 12v6m9-6v6m-5 0v6m9-6v6M8 24v3m10-3v3"></path>
      <path class="engraving-detail engraving-fine" d="m6 8 2-1m7 0h2M6 21h3m8-1h2"></path></svg>
      <text class="caption" x="60" y="88" text-anchor="middle">Walls</text>
      <svg class="small-size" x="51" y="110" width="18" height="18" viewBox="0 0 32 32"><path class="engraving-surface" d="M3 28 4 6h6v6h3V5h6v7h3V6h6l1 22Z"></path>
      <path class="engraving-shadow" d="m25 7 3-1 1 22H3v-4h22Z"></path>
      <path d="M4 18h24M5 24h23M9 12v6m9-6v6m-5 0v6m9-6v6M8 24v3m10-3v3"></path>
      <path class="engraving-detail engraving-fine" d="m6 8 2-1m7 0h2M6 21h3m8-1h2"></path></svg>
    </g><g class="icon" color="#746446" transform="translate(463,70)">
      <svg x="28" width="64" height="64" viewBox="0 0 32 32"><path class="engraving-surface" d="m5 7 18-4 5 3v21l-19 3-4-3Z"></path>
      <path class="engraving-shadow" d="m5 7 4 2v21l-4-3Zm4 18 19-3v5L9 30Z"></path>
      <path d="m5 7 4 2 19-3M9 9v20"></path>
      <path class="engraving-ink" d="m10 16 17-3v4l-17 3Z"></path>
      <path class="engraving-surface" d="m19 14 5-1v5l-5 1Z"></path>
      <path class="engraving-detail engraving-fine" d="m12 12 5-1m-5 12 3-.5M6 12l2 1m-2 9 2 1"></path></svg>
      <text class="caption" x="60" y="88" text-anchor="middle">Invested gold</text>
      <svg class="small-size" x="51" y="110" width="18" height="18" viewBox="0 0 32 32"><path class="engraving-surface" d="m5 7 18-4 5 3v21l-19 3-4-3Z"></path>
      <path class="engraving-shadow" d="m5 7 4 2v21l-4-3Zm4 18 19-3v5L9 30Z"></path>
      <path d="m5 7 4 2 19-3M9 9v20"></path>
      <path class="engraving-ink" d="m10 16 17-3v4l-17 3Z"></path>
      <path class="engraving-surface" d="m19 14 5-1v5l-5 1Z"></path>
      <path class="engraving-detail engraving-fine" d="m12 12 5-1m-5 12 3-.5M6 12l2 1m-2 9 2 1"></path></svg>
    </g><g class="icon" color="#746446" transform="translate(608,70)">
      <svg x="28" width="64" height="64" viewBox="0 0 32 32"><path class="engraving-surface" d="M3 28V9h3V5h4v4h3V5h6v4h3V5h4v4h3v19Z"></path>
      <path class="engraving-shadow" d="M24 10h5v18h-5ZM3 25h26v3H3Z"></path>
      <path d="M11 10v17M21 10v17M3 16h8m10 0h8"></path>
      <path class="engraving-ink" d="M13 27v-8c0-5 6-5 6 0v8ZM6 11h2v3H6Zm18 0h2v3h-2Z"></path>
      <path class="engraving-detail engraving-fine" d="M5 21h4m14 0h4M15 11h2M6 17v3m20-3v3"></path></svg>
      <text class="caption" x="60" y="88" text-anchor="middle">Inner Castle</text>
      <svg class="small-size" x="51" y="110" width="18" height="18" viewBox="0 0 32 32"><path class="engraving-surface" d="M3 28V9h3V5h4v4h3V5h6v4h3V5h4v4h3v19Z"></path>
      <path class="engraving-shadow" d="M24 10h5v18h-5ZM3 25h26v3H3Z"></path>
      <path d="M11 10v17M21 10v17M3 16h8m10 0h8"></path>
      <path class="engraving-ink" d="M13 27v-8c0-5 6-5 6 0v8ZM6 11h2v3H6Zm18 0h2v3h-2Z"></path>
      <path class="engraving-detail engraving-fine" d="M5 21h4m14 0h4M15 11h2M6 17v3m20-3v3"></path></svg>
    </g><g class="icon" color="#746446" transform="translate(753,70)">
      <svg x="28" width="64" height="64" viewBox="0 0 32 32"><path class="engraving-surface" d="m4 6 3-2 19 20 1 5-5-2Z"></path>
      <path class="engraving-shadow" d="m6 7 18 19 3 3-5-2L4 8Z"></path>
      <path class="engraving-surface" d="m16 11 4 4L7 30l-4-3Z"></path>
      <path class="engraving-shadow" d="m18 14 2 1L7 30l-2-2Z"></path>
      <path class="engraving-surface" d="m10 7 6-5 14 12-6 6Z"></path>
      <path class="engraving-ink" d="m25 10 5 4-6 6-5-4Z"></path>
      <path class="engraving-detail" d="m13 8 9 8M15 6l5 4"></path></svg>
      <text class="caption" x="60" y="88" text-anchor="middle">Develop city</text>
      <svg class="small-size" x="51" y="110" width="18" height="18" viewBox="0 0 32 32"><path class="engraving-surface" d="m4 6 3-2 19 20 1 5-5-2Z"></path>
      <path class="engraving-shadow" d="m6 7 18 19 3 3-5-2L4 8Z"></path>
      <path class="engraving-surface" d="m16 11 4 4L7 30l-4-3Z"></path>
      <path class="engraving-shadow" d="m18 14 2 1L7 30l-2-2Z"></path>
      <path class="engraving-surface" d="m10 7 6-5 14 12-6 6Z"></path>
      <path class="engraving-ink" d="m25 10 5 4-6 6-5-4Z"></path>
      <path class="engraving-detail" d="m13 8 9 8M15 6l5 4"></path></svg>
    </g>
  </svg>