<?xml version="1.0" encoding="UTF-8"?><svg xmlns="http://www.w3.org/2000/svg" width="1448" height="1086" viewBox="0 0 1448 1086"><image href="../source/crownlands-phase-6a-corrected-v2-1448x1086.png" x="0" y="0" width="1448" height="1086"/><g><image href="../../../../assets/optimized/castle-shack-256x256-bbd7514a6231.webp" x="1203" y="768.92" width="64" height="64"/><circle cx="1235" cy="824" r="10" fill="#4a2b18" stroke="#e0be73"/><text x="1235" y="828" text-anchor="middle" font-family="Segoe UI" font-size="9" font-weight="700" fill="#fff">1</text></g><g><image href="../../../../assets/optimized/castle-shack-256x256-bbd7514a6231.webp" x="902" y="235.92000000000002" width="64" height="64"/><circle cx="934" cy="291" r="10" fill="#4a2b18" stroke="#e0be73"/><text x="934" y="295" text-anchor="middle" font-family="Segoe UI" font-size="9" font-weight="700" fill="#fff">2</text></g><g><image href="../../../../assets/optimized/castle-shack-256x256-bbd7514a6231.webp" x="849" y="797.92" width="64" height="64"/><circle cx="881" cy="853" r="10" fill="#4a2b18" stroke="#e0be73"/><text x="881" y="857" text-anchor="middle" font-family="Segoe UI" font-size="9" font-weight="700" fill="#fff">3</text></g><g><image href="../../../../assets/optimized/castle-shack-256x256-bbd7514a6231.webp" x="683" y="387.92" width="64" height="64"/><circle cx="715" cy="443" r="10" fill="#4a2b18" stroke="#e0be73"/><text x="715" y="447" text-anchor="middle" font-family="Segoe UI" font-size="9" font-weight="700" fill="#fff">4</text></g><g><image href="../../../../assets/optimized/castle-shack-256x256-bbd7514a6231.webp" x="803" y="175.92000000000002" width="64" height="64"/><circle cx="835" cy="231" r="10" fill="#4a2b18" stroke="#e0be73"/><text x="835" y="235" text-anchor="middle" font-family="Segoe UI" font-size="9" font-weight="700" fill="#fff">5</text></g><g><image href="../../../../assets/optimized/castle-shack-256x256-bbd7514a6231.webp" x="1123" y="310.92" width="64" height="64"/><circle cx="1155" cy="366" r="10" fill="#4a2b18" stroke="#e0be73"/><text x="1155" y="370" text-anchor="middle" font-family="Segoe UI" font-size="9" font-weight="700" fill="#fff">6</text></g><g><image href="../../../../assets/optimized/castle-shack-256x256-bbd7514a6231.webp" x="197" y="774.92" width="64" height="64"/><circle cx="229" cy="830" r="10" fill="#4a2b18" stroke="#e0be73"/><text x="229" y="834" text-anchor="middle" font-family="Segoe UI" font-size="9" font-weight="700" fill="#fff">7</text></g><g><image href="../../../../assets/optimized/castle-shack-256x256-bbd7514a6231.webp" x="584" y="835.92" width="64" height="64"/><circle cx="616" cy="891" r="10" fill="#4a2b18" stroke="#e0be73"/><text x="616" y="895" text-anchor="middle" font-family="Segoe UI" font-size="9" font-weight="700" fill="#fff">8</text></g><g><image href="../../../../assets/optimized/castle-shack-256x256-bbd7514a6231.webp" x="971" y="839.92" width="64" height="64"/><circle cx="1003" cy="895" r="10" fill="#4a2b18" stroke="#e0be73"/><text x="1003" y="899" text-anchor="middle" font-family="Segoe UI" font-size="9" font-weight="700" fill="#fff">9</text></g><g><image href="../../../../assets/optimized/castle-shack-256x256-bbd7514a6231.webp" x="1121" y="682.92" width="64" height="64"/><circle cx="1153" cy="738" r="10" fill="#4a2b18" stroke="#e0be73"/><text x="1153" y="742" text-anchor="middle" font-family="Segoe UI" font-size="9" font-weight="700" fill="#fff">10</text></g><g><image href="../../../../assets/optimized/castle-shack-256x256-bbd7514a6231.webp" x="548" y="148.92000000000002" width="64" height="64"/><circle cx="580" cy="204" r="10" fill="#4a2b18" stroke="#e0be73"/><text x="580" y="208" text-anchor="middle" font-family="Segoe UI" font-size="9" font-weight="700" fill="#fff">11</text></g><g><image href="../../../../assets/optimized/castle-shack-256x256-bbd7514a6231.webp" x="577" y="258.92" width="64" height="64"/><circle cx="609" cy="314" r="10" fill="#4a2b18" stroke="#e0be73"/><text x="609" y="318" text-anchor="middle" font-family="Segoe UI" font-size="9" font-weight="700" fill="#fff">12</text></g><g><image href="../../../../assets/optimized/castle-shack-256x256-bbd7514a6231.webp" x="957" y="333.92" width="64" height="64"/><circle cx="989" cy="389" r="10" fill="#4a2b18" stroke="#e0be73"/><text x="989" y="393" text-anchor="middle" font-family="Segoe UI" font-size="9" font-weight="700" fill="#fff">13</text></g><g><image href="../../../../assets/optimized/castle-shack-256x256-bbd7514a6231.webp" x="1214" y="404.92" width="64" height="64"/><circle cx="1246" cy="460" r="10" fill="#4a2b18" stroke="#e0be73"/><text x="1246" y="464" text-anchor="middle" font-family="Segoe UI" font-size="9" font-weight="700" fill="#fff">14</text></g><g><image href="../../../../assets/optimized/castle-shack-256x256-bbd7514a6231.webp" x="472" y="789.92" width="64" height="64"/><circle cx="504" cy="845" r="10" fill="#4a2b18" stroke="#e0be73"/><text x="504" y="849" text-anchor="middle" font-family="Segoe UI" font-size="9" font-weight="700" fill="#fff">15</text></g><g><image href="../../../../assets/optimized/castle-shack-256x256-bbd7514a6231.webp" x="779" y="324.92" width="64" height="64"/><circle cx="811" cy="380" r="10" fill="#4a2b18" stroke="#e0be73"/><text x="811" y="384" text-anchor="middle" font-family="Segoe UI" font-size="9" font-weight="700" fill="#fff">16</text></g><g><image href="../../../../assets/optimized/castle-shack-256x256-bbd7514a6231.webp" x="880" y="417.92" width="64" height="64"/><circle cx="912" cy="473" r="10" fill="#4a2b18" stroke="#e0be73"/><text x="912" y="477" text-anchor="middle" font-family="Segoe UI" font-size="9" font-weight="700" fill="#fff">17</text></g><g><image href="../../../../assets/optimized/castle-shack-256x256-bbd7514a6231.webp" x="415" y="582.92" width="64" height="64"/><circle cx="447" cy="638" r="10" fill="#4a2b18" stroke="#e0be73"/><text x="447" y="642" text-anchor="middle" font-family="Segoe UI" font-size="9" font-weight="700" fill="#fff">18</text></g><g><image href="../../../../assets/optimized/castle-shack-256x256-bbd7514a6231.webp" x="1047" y="400.92" width="64" height="64"/><circle cx="1079" cy="456" r="10" fill="#4a2b18" stroke="#e0be73"/><text x="1079" y="460" text-anchor="middle" font-family="Segoe UI" font-size="9" font-weight="700" fill="#fff">19</text></g><g><image href="../../../../assets/optimized/castle-shack-256x256-bbd7514a6231.webp" x="172" y="291.92" width="64" height="64"/><circle cx="204" cy="347" r="10" fill="#4a2b18" stroke="#e0be73"/><text x="204" y="351" text-anchor="middle" font-family="Segoe UI" font-size="9" font-weight="700" fill="#fff">20</text></g><g><image href="../../../../assets/optimized/castle-shack-256x256-bbd7514a6231.webp" x="208" y="402.92" width="64" height="64"/><circle cx="240" cy="458" r="10" fill="#4a2b18" stroke="#e0be73"/><text x="240" y="462" text-anchor="middle" font-family="Segoe UI" font-size="9" font-weight="700" fill="#fff">21</text></g><g><image href="../../../../assets/optimized/castle-shack-256x256-bbd7514a6231.webp" x="1075" y="795.92" width="64" height="64"/><circle cx="1107" cy="851" r="10" fill="#4a2b18" stroke="#e0be73"/><text x="1107" y="855" text-anchor="middle" font-family="Segoe UI" font-size="9" font-weight="700" fill="#fff">22</text></g><g><image href="../../../../assets/optimized/castle-shack-256x256-bbd7514a6231.webp" x="357" y="681.92" width="64" height="64"/><circle cx="389" cy="737" r="10" fill="#4a2b18" stroke="#e0be73"/><text x="389" y="741" text-anchor="middle" font-family="Segoe UI" font-size="9" font-weight="700" fill="#fff">23</text></g><g><image href="../../../../assets/optimized/castle-shack-256x256-bbd7514a6231.webp" x="254" y="173.92000000000002" width="64" height="64"/><circle cx="286" cy="229" r="10" fill="#4a2b18" stroke="#e0be73"/><text x="286" y="233" text-anchor="middle" font-family="Segoe UI" font-size="9" font-weight="700" fill="#fff">24</text></g><g><image href="../../../../assets/optimized/castle-shack-256x256-bbd7514a6231.webp" x="277" y="590.92" width="64" height="64"/><circle cx="309" cy="646" r="10" fill="#4a2b18" stroke="#e0be73"/><text x="309" y="650" text-anchor="middle" font-family="Segoe UI" font-size="9" font-weight="700" fill="#fff">25</text></g><g><image href="../../../../assets/optimized/castle-shack-256x256-bbd7514a6231.webp" x="345" y="814.92" width="64" height="64"/><circle cx="377" cy="870" r="10" fill="#4a2b18" stroke="#e0be73"/><text x="377" y="874" text-anchor="middle" font-family="Segoe UI" font-size="9" font-weight="700" fill="#fff">26</text></g><g><image href="../../../../assets/optimized/castle-shack-256x256-bbd7514a6231.webp" x="504" y="650.92" width="64" height="64"/><circle cx="536" cy="706" r="10" fill="#4a2b18" stroke="#e0be73"/><text x="536" y="710" text-anchor="middle" font-family="Segoe UI" font-size="9" font-weight="700" fill="#fff">27</text></g><g><image href="../../../../assets/optimized/castle-shack-256x256-bbd7514a6231.webp" x="1024" y="231.92000000000002" width="64" height="64"/><circle cx="1056" cy="287" r="10" fill="#4a2b18" stroke="#e0be73"/><text x="1056" y="291" text-anchor="middle" font-family="Segoe UI" font-size="9" font-weight="700" fill="#fff">28</text></g><g><image href="../../../../assets/optimized/castle-shack-256x256-bbd7514a6231.webp" x="174" y="645.92" width="64" height="64"/><circle cx="206" cy="701" r="10" fill="#4a2b18" stroke="#e0be73"/><text x="206" y="705" text-anchor="middle" font-family="Segoe UI" font-size="9" font-weight="700" fill="#fff">29</text></g><g><image href="../../../../assets/optimized/castle-city-256x256-96961dc8d50b.webp" x="604" y="603.16" width="72" height="72"/><circle cx="640" cy="651" r="31" fill="none" stroke="#67d5ff" stroke-width="3"/><circle cx="640" cy="664" r="10" fill="#4a2b18" stroke="#e0be73"/><text x="640" y="668" text-anchor="middle" font-family="Segoe UI" font-size="9" font-weight="700" fill="#fff">30</text></g><g><image href="../../../../assets/optimized/castle-shack-256x256-bbd7514a6231.webp" x="517" y="506.92" width="64" height="64"/><circle cx="549" cy="562" r="10" fill="#4a2b18" stroke="#e0be73"/><text x="549" y="566" text-anchor="middle" font-family="Segoe UI" font-size="9" font-weight="700" fill="#fff">31</text></g><g><image href="../../../../assets/optimized/castle-shack-256x256-bbd7514a6231.webp" x="1058" y="588.92" width="64" height="64"/><circle cx="1090" cy="644" r="10" fill="#4a2b18" stroke="#e0be73"/><text x="1090" y="648" text-anchor="middle" font-family="Segoe UI" font-size="9" font-weight="700" fill="#fff">32</text></g><g><image href="../../../../assets/optimized/castle-shack-256x256-bbd7514a6231.webp" x="599" y="720.92" width="64" height="64"/><circle cx="631" cy="776" r="10" fill="#4a2b18" stroke="#e0be73"/><text x="631" y="780" text-anchor="middle" font-family="Segoe UI" font-size="9" font-weight="700" fill="#fff">33</text></g><g><image href="../../../../assets/optimized/castle-city-256x256-96961dc8d50b.webp" x="783" y="697.16" width="72" height="72"/><circle cx="819" cy="745" r="31" fill="none" stroke="#67d5ff" stroke-width="3"/><circle cx="819" cy="758" r="10" fill="#4a2b18" stroke="#e0be73"/><text x="819" y="762" text-anchor="middle" font-family="Segoe UI" font-size="9" font-weight="700" fill="#fff">34</text></g><g><image href="../../../../assets/optimized/castle-shack-256x256-bbd7514a6231.webp" x="362" y="329.92" width="64" height="64"/><circle cx="394" cy="385" r="10" fill="#4a2b18" stroke="#e0be73"/><text x="394" y="389" text-anchor="middle" font-family="Segoe UI" font-size="9" font-weight="700" fill="#fff">35</text></g><g><image href="../../../../assets/optimized/castle-shack-256x256-bbd7514a6231.webp" x="785" y="574.92" width="64" height="64"/><circle cx="817" cy="630" r="10" fill="#4a2b18" stroke="#e0be73"/><text x="817" y="634" text-anchor="middle" font-family="Segoe UI" font-size="9" font-weight="700" fill="#fff">36</text></g><g><image href="../../../../assets/optimized/castle-city-256x256-96961dc8d50b.webp" x="490" y="333.16" width="72" height="72"/><circle cx="526" cy="381" r="31" fill="none" stroke="#67d5ff" stroke-width="3"/><circle cx="526" cy="394" r="10" fill="#4a2b18" stroke="#e0be73"/><text x="526" y="398" text-anchor="middle" font-family="Segoe UI" font-size="9" font-weight="700" fill="#fff">37</text></g><g><image href="../../../../assets/optimized/castle-shack-256x256-bbd7514a6231.webp" x="675" y="517.92" width="64" height="64"/><circle cx="707" cy="573" r="10" fill="#4a2b18" stroke="#e0be73"/><text x="707" y="577" text-anchor="middle" font-family="Segoe UI" font-size="9" font-weight="700" fill="#fff">38</text></g><g><image href="../../../../assets/optimized/castle-shack-256x256-bbd7514a6231.webp" x="1206" y="608.92" width="64" height="64"/><circle cx="1238" cy="664" r="10" fill="#4a2b18" stroke="#e0be73"/><text x="1238" y="668" text-anchor="middle" font-family="Segoe UI" font-size="9" font-weight="700" fill="#fff">39</text></g><g><image href="../../../../assets/optimized/castle-city-256x256-96961dc8d50b.webp" x="770" y="455.16" width="72" height="72"/><circle cx="806" cy="503" r="31" fill="none" stroke="#67d5ff" stroke-width="3"/><circle cx="806" cy="516" r="10" fill="#4a2b18" stroke="#e0be73"/><text x="806" y="520" text-anchor="middle" font-family="Segoe UI" font-size="9" font-weight="700" fill="#fff">40</text></g><g><rect x="642" y="10" width="96" height="36" rx="8" fill="#183521" stroke="#d6c28b"/><text x="690" y="34" text-anchor="middle" font-family="Segoe UI" font-size="17" font-weight="800" fill="#fff">OPEN</text></g><g><rect x="1372" y="517" width="96" height="36" rx="8" fill="#4c2b22" stroke="#d6c28b"/><text x="1420" y="541" text-anchor="middle" font-family="Segoe UI" font-size="17" font-weight="800" fill="#fff">GATED</text></g><g><rect x="642" y="1040" width="96" height="36" rx="8" fill="#183521" stroke="#d6c28b"/><text x="690" y="1064" text-anchor="middle" font-family="Segoe UI" font-size="17" font-weight="800" fill="#fff">OPEN</text></g><g><rect x="-18" y="517" width="96" height="36" rx="8" fill="#4c2b22" stroke="#d6c28b"/><text x="30" y="541" text-anchor="middle" font-family="Segoe UI" font-size="17" font-weight="800" fill="#fff">GATED</text></g></svg>