<svg xmlns="http://www.w3.org/2000/svg" viewBox="0 0 64 64" fill="none" stroke="#574b34" stroke-width="1.6" stroke-linecap="round" stroke-linejoin="round"><title>Field Medics · leather healer satchel and linen dressing</title><path fill="#a39263" d="M12 28c4-18 32-25 38 0l-6 5c-3-23-24-9-24 0Z"/><path fill="#886441" d="m11 27 37-2 8 12-4 23-40-1-6-20Z"/><path fill="#aa8150" d="m12 29 35-2 4 6-1 23-36-1-4-17Z"/><path fill="#6d553b" stroke="none" d="m46 29 5 4-1 23-36-1-2-5 29-1Z"/><path fill="#b49767" d="m8 27 40-2 7 12-26 7L6 38Z"/><path fill="#a1804f" d="m28 39 7-1-1 14-7 1Z"/><rect x="27" y="43" width="9" height="7" rx="1" fill="#c9ad69"/><path fill="#e6dac0" d="m42 7 10 3-6 19-9-3Z"/><path stroke="#a79b7b" stroke-width="1" d="m41 13 8 2m-9 4 8 2m-9 3 8 2"/><path fill="#e7ddbc" d="m18 27 6-1 1 4 5-1 1 6-5 1 1 4-6 1-1-4-5 1-1-6 5-1Z"/></svg>
