<svg xmlns="http://www.w3.org/2000/svg" viewBox="0 0 64 64" fill="none" stroke="#574b34" stroke-width="1.6" stroke-linecap="round" stroke-linejoin="round"><title>Tax Stewardship · bound account book and Crown coins</title><path fill="#775347" d="m10 10 29-4 10 7-1 39-30 7-9-6Z"/><path fill="#b6a57b" d="m17 16 25-5 2 34-25 7Z"/><path fill="#e0cfa3" d="m20 18 26-5v33l-26 7Z"/><path fill="#855d48" d="m10 10 7 6 2 40-10-4Z"/><path stroke="#9d8a5f" stroke-width="1.2" d="m24 24 17-3m-17 9 17-3m-17 9 17-3m-17 9 8-1m-21-22 4-1m-4 20 4-1"/><path fill="#aa8644" d="M34 46h23v9c0 7-24 7-24 0Z"/><ellipse cx="45" cy="47" rx="12" ry="5" fill="#d3b263"/><path d="M34 52c6 4 17 4 23 0m-21 5 0-5m6 7v-5m7 4v-4m5 2v-4"/><path fill="#d8bd77" d="M33 36c0-7 15-9 20-4s2 13-5 15-15-3-15-11Z"/><path fill="#a48247" d="m36 35 4 2 3-5 3 5 5-3-3 8-9 1Z"/></svg>
