<svg xmlns="http://www.w3.org/2000/svg" viewBox="0 0 100 100" fill="currentColor">
  <path fill-rule="evenodd" d="M39.65 43.36L38.67 46.48 38.87 48.83 38.28 48.44 36.91 48.83 37.3 48.05 37.11 47.27 35.94 45.9 33.98 41.41 33.2 40.82 32.23 40.82 29.88 42.58 29.49 43.36 29.49 45.31 27.93 43.95 27.73 45.12 28.12 45.51 28.12 46.48 27.34 47.85 25.2 49.02 25 47.46 24.61 48.63 23.83 49.02 23.83 45.9 24.22 44.53 25 44.14 25.59 43.16 25.59 42.58 25.2 42.58 25.39 41.8 26.17 41.02 29.49 39.65 32.62 37.11 34.18 37.11 34.96 37.5 36.72 40.04 38.09 41.41 39.26 41.99 39.06 43.16ZM73.63 12.3L74.41 14.06 74.22 17.19 73.44 18.95 70.7 21.48 70.7 21.88 72.27 22.07 73.24 21.68 75.98 18.95 75.78 20.7 75.2 21.88 73.83 23.24 71.29 24.22 68.95 24.02 67.19 25 64.65 25.59 57.62 25.2 56.25 25.98 58.4 25.98 60.35 26.76 61.33 26.76 61.33 27.15 59.18 28.91 56.45 28.91 57.81 29.69 58.79 31.45 58.98 32.62 58.01 32.03 57.81 32.42 58.2 34.77 59.38 36.33 58.4 36.52 57.23 35.94 57.03 39.26 58.01 40.82 57.03 40.82 55.47 39.65 55.27 42.58 56.05 44.14 56.64 44.53 55.08 44.53 54.1 43.95 55.08 47.66 57.23 50.98 60.16 53.71 62.5 55.27 64.26 57.03 65.62 59.38 67.19 59.57 68.55 59.18 69.73 58.2 70.51 56.45 71.09 57.81 71.09 59.18 69.92 61.33 71.29 60.74 71.09 61.91 70.12 62.89 68.55 63.28 69.53 63.87 69.53 64.26 67.58 64.45 65.82 63.28 66.02 67.97 65.04 67.38 65.04 68.95 66.02 70.51 68.55 71.68 69.34 72.85 69.34 73.83 67.97 76.37 67.19 80.08 67.19 83.59 68.16 85.55 67.38 85.55 67.58 86.72 66.6 86.33 66.02 85.55 65.43 85.74 65.62 88.48 64.45 89.65 61.72 90.43 62.11 88.48 61.13 89.84 59.96 90.23 60.94 86.72 62.7 85.35 61.91 84.38 63.28 83.4 63.87 82.23 64.26 80.27 64.06 75.98 63.48 74.61 62.89 74.22 61.33 73.83 59.57 72.66 59.57 74.02 59.18 74.02 57.23 72.07 56.05 69.73 55.27 63.48 54.49 61.91 52.15 60.16 50.39 59.57 46.68 57.42 45.31 56.25 45.31 54.69 44.92 54.69 44.53 56.25 43.55 57.23 42.77 57.42 42.77 55.66 39.84 55.27 35.74 53.71 34.96 54.1 34.18 56.64 34.38 58.59 35.55 60.16 33.59 59.96 33.79 60.74 34.57 61.13 35.35 62.3 35.35 63.67 34.38 65.82 33.98 65.82 33.2 64.26 33.2 66.41 32.81 66.6 31.05 63.48 31.25 61.13 31.05 60.74 30.47 60.74 30.27 59.18 31.64 56.25 32.23 52.15 33.2 50.78 33.98 50.39 38.09 50.2 40.62 49.41 40.82 48.24 41.8 46.68 39.84 48.44 39.84 48.83 39.45 48.63 39.45 45.12 40.23 43.36 40.82 42.97 39.65 42.97 39.45 42.58 40.62 40.43 42.19 39.26 41.02 38.67 40.62 37.7 42.19 37.7 44.14 36.52 45.31 36.33 44.53 35.35 44.53 34.77 46.88 34.77 47.85 34.38 48.63 33.4 50.39 33.4 51.56 32.81 49.22 33.01 46.68 32.03 44.73 32.03 44.14 32.62 42.58 32.62 41.99 32.03 42.19 31.25 44.73 30.66 43.75 30.47 41.41 31.05 40.82 30.47 40.82 29.1 40.23 28.12 41.21 26.95 45.12 26.56 47.07 25.98 47.46 25 48.44 24.41 51.56 24.22 52.15 23.83 51.76 22.85 50.39 22.46 48.63 20.9 48.05 19.34 48.44 16.8 48.83 16.6 49.02 18.55 50.2 20.31 51.76 21.09 53.12 21.09 53.71 20.31 53.71 19.53 52.93 18.95 52.15 16.99 52.15 15.82 52.93 13.87 53.91 13.28 53.52 14.26 53.52 16.41 54.1 17.58 55.08 18.36 56.25 18.36 58.2 16.6 57.23 14.26 57.23 12.11 57.81 10.74 58.4 10.35 58.2 12.3 58.79 14.06 59.18 14.65 60.35 14.84 61.13 14.26 62.11 12.5 62.7 9.18 63.48 10.94 63.48 12.89 62.7 15.04 61.13 16.8 62.89 16.41 64.45 15.04 63.87 16.99 61.72 18.55 59.57 18.75 58.59 19.73 56.64 20.51 55.47 21.68 55.08 23.44 55.66 23.63 57.23 23.24 58.01 21.48 59.77 20.31 60.55 20.51 59.57 21.29 59.18 23.05 59.96 23.44 62.11 23.44 62.3 19.92 63.09 18.75 63.67 22.07 64.65 22.85 65.62 22.85 67.19 22.07 68.16 20.7 67.38 18.16 67.38 16.6 67.97 14.84 68.55 14.45 68.55 16.99 69.14 18.36 69.73 18.95 70.51 18.95 72.66 16.6ZM52.93 61.33L54.69 63.67 55.08 66.02 55.08 67.97 54.3 68.36 53.12 69.92 53.32 72.66 54.49 73.83 54.3 75.59 46.68 79.1 45.51 80.47 45.31 82.42 44.14 81.64 43.95 80.86 43.55 80.86 43.16 81.25 43.16 83.4 42.19 84.38 39.06 85.16 39.45 83.59 38.67 84.57 37.7 84.96 38.87 81.45 41.02 79.69 40.62 78.71 41.6 77.73 45.9 76.37 47.66 75.2 48.63 74.02 48.63 73.05 47.07 71.68 46.09 69.73 45.31 70.7 44.92 70.7 44.73 67.19 45.51 64.84 47.46 62.89 51.37 60.55ZM51.37 26.76L49.02 26.56 48.44 27.15 49.41 27.73 50.2 27.73Z"/>
</svg>
